<svg id="placeholder_compra-optima" xmlns="http://www.w3.org/2000/svg" width="50.771" height="80" viewBox="0 0 50.771 80">
    <path id="Trazado_13941" data-name="Trazado 13941" d="M49.77,7.928h-13.5A8.259,8.259,0,0,0,28.018,0H22.753A8.259,8.259,0,0,0,14.5,7.928H1a1,1,0,0,0-1,1V79a1,1,0,0,0,1,1H49.77a1,1,0,0,0,1-1V8.929a1,1,0,0,0-1-1ZM16.5,8.258a1.829,1.829,0,0,1,.02-.33A6.245,6.245,0,0,1,22.753,2h5.265a6.245,6.245,0,0,1,6.236,5.925,1.829,1.829,0,0,1,.02.331V15.8H16.5ZM48.769,78H2V9.93H14.494v6.016A1.854,1.854,0,0,0,16.346,17.8H34.424a1.854,1.854,0,0,0,1.852-1.852V9.93H48.769Z" transform="translate(0)" fill="#acacac"/>
    <path id="Trazado_13942" data-name="Trazado 13942" d="M25.385,21A15.639,15.639,0,0,0,15.079,48.43l.05.04.691.56.01.01a15.63,15.63,0,0,0,19.121-.01l.691-.56.05-.04A15.639,15.639,0,0,0,25.385,21Zm0,29.3a13.618,13.618,0,0,1-8.143-2.69,5.8,5.8,0,0,1,5.619-4.37h5.048a5.778,5.778,0,0,1,5.609,4.38,13.647,13.647,0,0,1-8.133,2.68Zm9.786-4.13a7.827,7.827,0,0,0-7.262-4.93H22.861A7.827,7.827,0,0,0,15.6,46.17a13.661,13.661,0,1,1,19.572,0Z" transform="translate(0 0.035)" fill="#acacac"/>
    <rect id="Rectángulo_6409" data-name="Rectángulo 6409" width="34.051" height="2" transform="translate(8.36 58.222)" fill="#acacac"/>
    <rect id="Rectángulo_6410" data-name="Rectángulo 6410" width="34.051" height="2" transform="translate(8.36 64.501)" fill="#acacac"/>
    <rect id="Rectángulo_6411" data-name="Rectángulo 6411" width="34.051" height="2" transform="translate(8.36 70.501)" fill="#acacac"/>
    <path id="Trazado_13943" data-name="Trazado 13943" d="M29.77,9.11a.995.995,0,0,1-1,1H21.95a.96.96,0,0,1-.58-.19,1.008,1.008,0,0,1-.42-.81,1,1,0,0,1,1-1h6.82a1,1,0,0,1,1,1Z" transform="translate(0.025)" fill="#acacac"/>
    <path id="Trazado_13944" data-name="Trazado 13944" d="M25.36,26.56a6.73,6.73,0,1,0,6.73,6.73,6.73,6.73,0,0,0-6.73-6.73Zm0,11.46a4.73,4.73,0,1,1,4.73-4.73,4.73,4.73,0,0,1-4.73,4.73Z" transform="translate(0.025 0.032)" fill="#acacac"/>
  </svg>
  